<?xml version="1.0" standalone="no"?><!DOCTYPE svg PUBLIC "-//W3C//DTD SVG 1.1//EN" "http://www.w3.org/Graphics/SVG/1.1/DTD/svg11.dtd"><svg t="1602131590521" class="icon" viewBox="0 0 1024 1024" version="1.1" xmlns="http://www.w3.org/2000/svg" p-id="3410" xmlns:xlink="http://www.w3.org/1999/xlink" width="200" height="200"><defs><style type="text/css"></style></defs><path d="M973.304 118.104a49.928 49.928 0 0 0-38.304-3.48 49.912 49.912 0 0 0-29.544 24.624 49.888 49.888 0 0 0-3.472 38.304c1.56 4.992 4.024 9.496 6.936 13.664l-4.216 14.064a173.624 173.624 0 0 1-10.768 27.072 60.528 60.528 0 0 0-34.216-24.824 60.064 60.064 0 0 0-51.056-56.144 60.264 60.264 0 0 0-65.6 38.08c-30.064-1.168-57.272 20.512-62 51.104a60.2 60.2 0 0 0 15.768 50.664 66.4 66.4 0 0 0-0.648 3.48c-0.168 1.104-0.232 2.192-0.336 3.288l-53.688 44.464a8.008 8.008 0 0 0-1.672 1.888l-39.92 62.36c9.336-42.352 1.784-69.264-1.344-77.664a74.304 74.304 0 0 0 28-5.488c38.248-15.68 56.608-59.544 40.928-97.776a75.4 75.4 0 0 0-4.12-8.488 74.464 74.464 0 0 0 2.112-61.488h-0.008c-14.792-36.08-54.696-54.488-91.232-43.264a74.552 74.552 0 0 0-91.168-28.328 74.816 74.816 0 0 0-45.048 84.168c-33.912 17.696-49.416 58.776-34.624 94.856a74.752 74.752 0 0 0 50.408 44.08c0.592 1.808 1.232 3.568 1.936 5.264a74.464 74.464 0 0 0 40.408 40.712 74.92 74.92 0 0 0 28.928 5.856 74.72 74.72 0 0 0 28.432-5.648 74.256 74.256 0 0 0 28.864-21.28c0.104 0.328 0.096 0.664 0.248 0.976 0.232 0.488 22.728 50.16-24.856 137.408-0.592 1.08-0.864 2.24-0.936 3.392l-3.2 4.992-99.552 32.064a80.016 80.016 0 0 0-10.552-39.496 79.448 79.448 0 0 0 2.4-65.888h-0.008a79.424 79.424 0 0 0-43.112-43.432 79.344 79.344 0 0 0-54.648-2.584 79.544 79.544 0 0 0-97.504-30.608A79.832 79.832 0 0 0 203.36 419.28c-36.456 18.76-53.176 62.768-37.344 101.4a79.68 79.68 0 0 0 54.096 47.104 79.312 79.312 0 0 0 33.344 43.072c-3.96 7.176-13 26.376-8.096 44.84 2.728 10.248 9.32 18.376 19.232 24.456l-51.64 71.776-176.24 39.792c-3.728 0.84-6.384 4.16-6.384 7.984v178.256a8.2 8.2 0 0 0 8.176 8.184c1.2 0 2.4-0.264 3.512-0.792l255.28-121.52c3.456 0.232 6.904 0.424 10.232 0.424 39.008 0 68.28-14.792 69.632-15.488a8 8 0 0 0 2.04-1.632c4.704 2.04 9.68 3.56 14.88 4.36a59.792 59.792 0 0 0 31.792-3.656 59.848 59.848 0 0 0 29.192 13.088 59.888 59.888 0 0 0 44.88-10.96 59.944 59.944 0 0 0 24.64-46.104 59.928 59.928 0 0 0 26.24-41.032 60 60 0 0 0-10.952-44.888 59.928 59.928 0 0 0-32.704-22.536 60.048 60.048 0 0 0-51.056-56.128 60.104 60.104 0 0 0-35.56 5.496l20.096-36.632 50.664-16.32c0.336 7.848 2.624 19.736 11.896 32.024 11.88 15.736 31.44 27.464 58.352 35.104 0.088 4.712 0.824 9.432 2.272 14.056a49.96 49.96 0 0 0 24.624 29.544 50.312 50.312 0 0 0 67.848-21.152 50.312 50.312 0 0 0-21.152-67.848 49.928 49.928 0 0 0-38.304-3.48 49.912 49.912 0 0 0-32.816 32.496c-26.312-7.864-40.184-18.776-47.432-28.16-10.272-13.296-9.208-25.424-8.856-27.888l85.456-27.528c13.672 19.472 35.16 25.104 52.288 25.104 6.6 0 12.536-0.816 17.088-1.952 1.192-0.296 2.224-0.88 3.12-1.6 0.648 1.64 1.272 3.28 2.04 4.896a79.696 79.696 0 0 0 56.576 44.104c0.752 1.984 1.584 3.928 2.48 5.808 13.672 28.792 42.424 45.664 72.352 45.664 11.48 0 23.128-2.48 34.16-7.72a79.328 79.328 0 0 0 33.112-29.208 79.16 79.16 0 0 0 43.552-7.184 79.4 79.4 0 0 0 41.032-45.4 79.424 79.424 0 0 0-3.088-61.12 80.68 80.68 0 0 0-5.048-9.064 79.36 79.36 0 0 0-1.192-65.92c-17.912-37.728-61.736-55.008-100.112-40.648a79.6 79.6 0 0 0-20.936-20.04l71.6-68.12a191.208 191.208 0 0 0 56.68-107.68l0.976-6.096a50.328 50.328 0 0 0 44.576-26.896 50.272 50.272 0 0 0-21.152-67.816zM737.8 391.992a79.768 79.768 0 0 0-9.136 5.976l-76.192 27.64 31.768-56.232 28.048-23.76a60.016 60.016 0 0 0 34.336 17.992 60.392 60.392 0 0 0 23.032-0.944l-31.856 29.328zM261.176 651.56c-3.6-13.424 4.408-28.952 6.952-33.4a79.536 79.536 0 0 0 28.104 5.248c3.224 0 6.448-0.272 9.664-0.664l-31.784 44.176c-6.896-3.944-11.216-8.952-12.936-15.36z m48.016 196.264l34.16-62.28a59.888 59.888 0 0 0 19.952 51.456c-9.744 3.904-29.808 10.512-54.112 10.824z m349.424-281.536c-0.36 0.088-30.744 7.296-48.872-12.608l51.64-16.632a79.6 79.6 0 0 0 0.12 29.096 8.032 8.032 0 0 0-2.888 0.144z" fill="#E6E7E8" p-id="3411"></path><path d="M725.912 364.384l-98.168 35.608 43.376-76.76 35.432-30.008a51.96 51.96 0 0 1-9.544-31.96l-56.344 46.672L552.88 445.04l-188.944 60.856-152.88 212.496-179.256 40.464v178.248l257.096-122.384 48.984-89.304a51.896 51.896 0 0 1-7.976-36.56 52.152 52.152 0 0 1 52.248-44.152l46.184-84.2 238.336-76.76a71.416 71.416 0 0 1 35.808-38.256l0.192-0.088a70.912 70.912 0 0 1-2.944-10.488 71.832 71.832 0 0 1 26.184-70.528zM923.696 159a41.824 41.824 0 0 1-12.512-10.088l-5.36 17.872a182.12 182.12 0 0 1-19.056 42.568c2.304 7.368 3.056 15.352 1.8 23.496a52.08 52.08 0 0 1-26.304 37.672 52.192 52.192 0 0 1-60.128 53.576 51.84 51.84 0 0 1-20.744-8.152l-45.536 41.928c1.152-0.624 2.288-1.272 3.496-1.848a71.52 71.52 0 0 1 60.76-0.288l79.784-75.904a181.952 181.952 0 0 0 54.24-103.04l2.2-13.736a41.368 41.368 0 0 1-12.64-4.056z" fill="#FFFFFF" p-id="3412"></path><path d="M701.504 399.832l-49.248 17.864 43.376-76.76 34.52-29.24a52 52 0 0 1-24.4-19.68l-40.584 33.616-87.784 137.112-188.944 60.856-152.872 212.496L56.304 776.56v178.248l257.096-122.384 34.472-62.84a51.88 51.88 0 0 1-1.176-33.856 52.192 52.192 0 0 1 42.76-90.472l0.152 0.024c0.656-2.592 1.496-5.104 2.512-7.512a52.192 52.192 0 0 1 45.448-31.712l15.28-27.864 208.704-67.216c-0.232-27.072 14.864-53.128 40.928-65.504l0.192-0.088a71.528 71.528 0 0 1-1.168-45.552zM936.736 163.136l-6.4 21.36a181.952 181.952 0 0 1-51.04 81.592l-92.4 85.072a71.744 71.744 0 0 1 37.36 22.632l80.136-76.24a181.896 181.896 0 0 0 54.232-103.04l5.856-36.56a42.056 42.056 0 0 1-27.744 5.184z" fill="#FFD7E5" p-id="3413"></path><path d="M432.288 367.936a71.776 71.776 0 0 0-93.632-39.192l-0.2 0.088c-16.984-32.448-56.2-47.224-90.768-33.056a71.784 71.784 0 0 0-41.448 87.248l-0.2 0.08a71.776 71.776 0 0 0 13.864 136.92 71.776 71.776 0 0 0 130.824 20 71.776 71.776 0 0 0 77.312-109.032 71.608 71.608 0 0 0 4.248-63.056z" fill="#FA759E" p-id="3414"></path><path d="M362.216 379.248a12.696 12.696 0 0 0-7.616 14.264l-41.848 31.184c-0.376-0.28-0.792-0.496-1.192-0.736l8-23.848a8.376 8.376 0 0 0 2.944-16.344 8.376 8.376 0 1 0-7.376 14.848l-7.968 23.744a12.304 12.304 0 0 0-3.256-0.152l-16.608-41.512a12.664 12.664 0 0 0-12.616-21.712 12.656 12.656 0 1 0 6.04 24.336l16.608 41.512c-0.56 0.432-1.048 0.928-1.512 1.44l-22.072-13.792a8.4 8.4 0 1 0-2.488 3.96l22.104 13.808a12.944 12.944 0 0 0-0.76 2.8l-45.984 6.76a12.672 12.672 0 0 0-23.264 10.088 12.712 12.712 0 0 0 16.568 6.936 12.64 12.64 0 0 0 7.712-10.016l45.984-6.76c0.072 0.152 0.16 0.28 0.24 0.424l-20.96 15.2a8.4 8.4 0 0 0-2.528-1.376 8.4 8.4 0 1 0 5.376 10.592 8.32 8.32 0 0 0-0.112-5.424l21.072-15.28c0.656 0.584 1.352 1.12 2.104 1.56l-10.88 44.672c-1.424 0.064-2.856 0.32-4.256 0.888a12.712 12.712 0 0 0 9.632 23.504 12.712 12.712 0 0 0 6.936-16.568 12.56 12.56 0 0 0-5.44-6.144l10.88-44.672c0.448-0.016 0.888-0.096 1.336-0.16l8.512 25.376a8.336 8.336 0 0 0-3.128 4.216 8.4 8.4 0 1 0 10.592-5.376 8.368 8.368 0 0 0-3.048-0.384l-8.504-25.36c0.816-0.48 1.576-1.016 2.256-1.64l39.976 24.12a12.56 12.56 0 0 0 0.528 7.912 12.712 12.712 0 0 0 23.504-9.632 12.712 12.712 0 0 0-16.568-6.936 12.6 12.6 0 0 0-3.888 2.544l-39.728-23.968 29.448 1.888a8.392 8.392 0 0 0 16.36 2.048 8.4 8.4 0 0 0-15.328-6.664l-30.312-1.944a12.968 12.968 0 0 0-0.688-3.096l40.96-30.512a12.696 12.696 0 0 0 20.848-13.664 12.72 12.72 0 0 0-16.592-6.952z" fill="#FFD7E5" p-id="3415"></path><path d="M651.848 118.064a66.768 66.768 0 0 0-87.112-36.456l-0.184 0.08a66.776 66.776 0 0 0-125.216 40.528c0.48 3.304 1.208 6.616 2.208 9.888a66.768 66.768 0 0 0 12.72 127.456 66.768 66.768 0 0 0 121.712 18.6 66.768 66.768 0 0 0 71.928-101.432 66.664 66.664 0 0 0 3.944-58.664z" fill="#FA759E" p-id="3416"></path><path d="M586.656 128.584a11.808 11.808 0 0 0-7.088 13.272l-38.936 29.008c-0.352-0.264-0.736-0.464-1.112-0.688l7.448-22.184a7.8 7.8 0 0 0 2.736-15.208 7.792 7.792 0 1 0-6.864 13.824l-7.416 22.088a11.984 11.984 0 0 0-3.032-0.144l-15.456-38.616a11.784 11.784 0 0 0-11.736-20.192 11.808 11.808 0 0 0-6.448 15.416 11.76 11.76 0 0 0 12.072 7.224l15.456 38.616a11.216 11.216 0 0 0-1.408 1.344l-20.536-12.832a7.792 7.792 0 0 0-14.928-4.536 7.824 7.824 0 0 0 5.008 9.856c2.744 0.896 5.6 0.168 7.608-1.624l20.56 12.848c-0.32 0.84-0.584 1.704-0.712 2.608l-42.784 6.288a11.792 11.792 0 0 0-21.64 9.384 11.776 11.776 0 1 0 22.592-2.872l42.784-6.288c0.064 0.136 0.152 0.256 0.224 0.392l-19.496 14.144a7.776 7.776 0 0 0-2.352-1.28 7.824 7.824 0 1 0 5.008 9.856 7.728 7.728 0 0 0-0.104-5.048l19.6-14.216c0.608 0.544 1.256 1.048 1.96 1.448l-10.12 41.56a11.76 11.76 0 0 0-3.96 0.824 11.808 11.808 0 1 0 8.968 21.864 11.808 11.808 0 0 0 6.448-15.416 11.68 11.68 0 0 0-5.064-5.72l10.12-41.56c0.416-0.016 0.832-0.088 1.248-0.144l7.92 23.608a7.688 7.688 0 0 0-2.904 3.92 7.824 7.824 0 1 0 9.856-5.008 7.736 7.736 0 0 0-2.84-0.36l-7.912-23.592c0.76-0.448 1.472-0.952 2.096-1.528l37.184 22.432a11.68 11.68 0 0 0 0.488 7.36 11.808 11.808 0 1 0 21.864-8.968 11.808 11.808 0 0 0-15.416-6.448 11.568 11.568 0 0 0-3.616 2.368l-36.96-22.304 27.4 1.76a7.8 7.8 0 0 0 15.216 1.896 7.824 7.824 0 0 0-14.264-6.208l-28.2-1.808a11.944 11.944 0 0 0-0.64-2.88l38.104-28.384a11.816 11.816 0 1 0 3.976-19.152z" fill="#FFD7E5" p-id="3417"></path><path d="M927.568 418.08a71.768 71.768 0 0 0-95.616-34.056l-0.192 0.096a71.776 71.776 0 0 0-129.096 61.28l-0.192 0.088a71.768 71.768 0 0 0 21.272 135.968 71.768 71.768 0 0 0 131.72 12.872 71.768 71.768 0 0 0 71.288-113.048 71.632 71.632 0 0 0 0.816-63.2z" fill="#FA759E" p-id="3418"></path><path d="M858.216 433.168a12.688 12.688 0 0 0-6.832 14.656l-40.104 33.4c-0.392-0.264-0.816-0.456-1.232-0.672l6.696-24.248a8.376 8.376 0 0 0 2.056-16.48 8.376 8.376 0 1 0-6.568 15.232l-6.672 24.136a12.744 12.744 0 0 0-3.264 0.024l-18.84-40.552a12.68 12.68 0 0 0 3.152-14.968 12.704 12.704 0 0 0-22.944 10.896c2.464 5.184 7.984 7.872 13.376 7.048l18.84 40.552a12.216 12.216 0 0 0-1.432 1.52l-22.792-12.576a8.384 8.384 0 0 0-16.288-4.008 8.384 8.384 0 1 0 14.016 8.104l22.816 12.592a12.656 12.656 0 0 0-0.608 2.84l-45.552 9.24a12.68 12.68 0 0 0-22.68 11.328 12.704 12.704 0 0 0 16.92 6.024 12.64 12.64 0 0 0 7.16-10.424l45.552-9.24c0.08 0.144 0.176 0.272 0.256 0.408l-20.104 16.312a8.336 8.336 0 0 0-2.592-1.232 8.4 8.4 0 1 0 5.944 10.288 8.336 8.336 0 0 0-0.4-5.416l20.208-16.4c0.688 0.544 1.408 1.048 2.192 1.44l-8.44 45.192a12.464 12.464 0 0 0-4.2 1.12 12.704 12.704 0 1 0 16.92 6.024 12.56 12.56 0 0 0-5.768-5.84l8.44-45.192c0.44-0.04 0.888-0.144 1.328-0.232l9.872 24.88c-1.36 1.08-2.408 2.568-2.896 4.376a8.4 8.4 0 1 0 10.288-5.944 8.328 8.328 0 0 0-3.064-0.216l-9.864-24.864a14.08 14.08 0 0 0 2.168-1.76l41.224 21.912c-0.504 2.576-0.256 5.32 0.952 7.872a12.704 12.704 0 1 0 6.024-16.92 12.72 12.72 0 0 0-3.744 2.752l-40.968-21.784 29.504 0.296a8.4 8.4 0 1 0 0.784-4.68l-30.376-0.304a12.824 12.824 0 0 0-0.856-3.056l39.24-32.688a12.688 12.688 0 1 0 3.152-20.768z" fill="#FFD7E5" p-id="3419"></path><path d="M888.56 232.848a52.2 52.2 0 0 0-43.752-59.568 52.184 52.184 0 0 0-102.68-15.872l-0.152-0.024a52.2 52.2 0 0 0-59.552 43.6 52.136 52.136 0 0 0 16.792 46.872 52.2 52.2 0 0 0 73.96 61.56 52.2 52.2 0 0 0 89.072-38.88 52.08 52.08 0 0 0 26.312-37.688z" fill="#FA759E" p-id="3420"></path><path d="M840.68 213.592a9.224 9.224 0 0 0-10.096 6.024l-37.768 3.712c-0.128-0.32-0.304-0.608-0.464-0.904l13.936-11.848a6.104 6.104 0 0 0 7.344-0.456 6.104 6.104 0 1 0-7.992-9.24 6.088 6.088 0 0 0-1.552 7.104l-13.872 11.792a9.2 9.2 0 0 0-1.968-1.32l5.24-32.088a9.2 9.2 0 0 0 0.296-18.256 9.232 9.232 0 0 0-10.536 7.712c-0.64 4.128 1.584 8 5.168 9.704l-5.24 32.088a9.304 9.304 0 0 0-1.488 0.328l-8.568-16.872a6.104 6.104 0 1 0-3.04 1.536l8.584 16.896a9.392 9.392 0 0 0-1.528 1.456l-31.176-13.048a9.216 9.216 0 0 0-18.272-2.456c-0.776 5.04 2.672 9.76 7.712 10.536 3.368 0.52 6.56-0.872 8.56-3.344l31.176 13.048c-0.016 0.12 0 0.232-0.008 0.352l-18.76 1.6a6.048 6.048 0 0 0-1.056-1.8 6.104 6.104 0 1 0-0.624 8.616 6.048 6.048 0 0 0 1.968-3.424l18.856-1.608c0.192 0.608 0.416 1.208 0.728 1.76l-23.544 23.736a9.12 9.12 0 0 0-2.984-1.04 9.232 9.232 0 1 0 7.712 10.536 9.16 9.16 0 0 0-1.08-5.872l23.536-23.736c0.288 0.152 0.592 0.272 0.896 0.4l-4.224 19a6.08 6.08 0 0 0-4.152 10.064 6.104 6.104 0 1 0 7.488-9.376l4.224-18.984a9.44 9.44 0 0 0 2.024-0.176l15.84 30.024a9.12 9.12 0 0 0-2.64 5.128 9.232 9.232 0 1 0 10.536-7.712 9.16 9.16 0 0 0-3.376 0.128l-15.744-29.84 17.632 12.232a6.112 6.112 0 1 0 2.368-2.496l-18.144-12.592c0.32-0.688 0.584-1.408 0.728-2.184l36.96-3.632a9.224 9.224 0 1 0 10.384-11.208z" fill="#FFD7E5" p-id="3421"></path><path d="M605.096 617.208m-42.072 0a42.072 42.072 0 1 0 84.144 0 42.072 42.072 0 1 0-84.144 0Z" fill="#FA759E" p-id="3422"></path><path d="M943.24 121.752m-42.072 0a42.072 42.072 0 1 0 84.144 0 42.072 42.072 0 1 0-84.144 0Z" fill="#FA759E" p-id="3423"></path><path d="M536.032 720.728a52.2 52.2 0 0 0-43.752-59.568A52.184 52.184 0 0 0 389.6 645.288l-0.152-0.024a52.2 52.2 0 0 0-59.552 43.6 52.136 52.136 0 0 0 16.792 46.872 52.2 52.2 0 0 0 73.96 61.56 52.2 52.2 0 0 0 89.072-38.88 52.096 52.096 0 0 0 26.312-37.688z" fill="#FA759E" p-id="3424"></path><path d="M488.152 701.472a9.224 9.224 0 0 0-10.096 6.024l-37.768 3.704c-0.128-0.32-0.304-0.608-0.464-0.904l13.936-11.848a6.104 6.104 0 0 0 7.344-0.456 6.104 6.104 0 1 0-7.992-9.24 6.088 6.088 0 0 0-1.552 7.104l-13.872 11.792a9.2 9.2 0 0 0-1.968-1.32l5.24-32.088a9.2 9.2 0 0 0 0.296-18.256 9.232 9.232 0 0 0-10.536 7.712c-0.64 4.128 1.584 8 5.168 9.704l-5.24 32.088a9.304 9.304 0 0 0-1.488 0.328l-8.568-16.872a6.104 6.104 0 1 0-3.04 1.536l8.584 16.896a9.392 9.392 0 0 0-1.528 1.456l-31.176-13.048a9.216 9.216 0 0 0-18.272-2.456c-0.776 5.04 2.672 9.76 7.712 10.536 3.368 0.52 6.56-0.872 8.56-3.344l31.176 13.048c-0.016 0.12 0 0.232-0.008 0.352l-18.76 1.6a6.048 6.048 0 0 0-1.056-1.8 6.104 6.104 0 1 0-0.624 8.616 6.048 6.048 0 0 0 1.968-3.424l18.856-1.608c0.192 0.608 0.416 1.208 0.728 1.76l-23.544 23.736a9.12 9.12 0 0 0-2.984-1.04 9.232 9.232 0 1 0 7.712 10.536 9.16 9.16 0 0 0-1.08-5.872l23.536-23.736c0.288 0.152 0.592 0.272 0.896 0.4l-4.224 19a6.08 6.08 0 0 0-4.152 10.064 6.104 6.104 0 1 0 7.488-9.376l4.224-18.984a9.44 9.44 0 0 0 2.024-0.176l15.84 30.024a9.12 9.12 0 0 0-2.64 5.128 9.232 9.232 0 1 0 10.536-7.712 9.16 9.16 0 0 0-3.376 0.128l-15.744-29.84 17.632 12.232a6.112 6.112 0 1 0 2.368-2.496l-18.144-12.592c0.32-0.688 0.584-1.408 0.728-2.184l36.96-3.632a9.224 9.224 0 1 0 10.384-11.2z" fill="#FFD7E5" p-id="3425"></path><path d="M991.04 106.848a49.752 49.752 0 0 0-24.528-29.432 50.152 50.152 0 0 0-67.608 21.072 50.08 50.08 0 0 0 3.44 52.064l-4.176 13.944a171.776 171.776 0 0 1-10.904 27.384 60.304 60.304 0 0 0-34.432-25.04 59.888 59.888 0 0 0-50.912-56.112 60.08 60.08 0 0 0-65.448 38.088 59.552 59.552 0 0 0-38.016 11.584 59.744 59.744 0 0 0-23.92 39.36 59.992 59.992 0 0 0 15.792 50.584c-0.264 1.2-0.488 2.392-0.664 3.568-0.176 1.12-0.24 2.232-0.352 3.344l-53.744 44.512a7.992 7.992 0 0 0-1.632 1.848l-40.48 63.224c9.776-43.344 1.88-70.664-1.2-78.792a74.272 74.272 0 0 0 68.808-45.808 74.24 74.24 0 0 0 0.208-57.216 73.28 73.28 0 0 0-4.16-8.552 74.28 74.28 0 0 0 2.144-61.432 74.296 74.296 0 0 0-40.32-40.616 74.144 74.144 0 0 0-50.832-2.504 74.4 74.4 0 0 0-91.024-28.376 74.64 74.64 0 0 0-44.912 84.096c-33.904 17.616-49.432 58.656-34.656 94.688a74.528 74.528 0 0 0 50.384 44c0.584 1.832 1.24 3.616 1.952 5.352 11.84 28.896 39.832 46.416 69.28 46.416a74.12 74.12 0 0 0 57.28-27.096c0.12 0.432 0.12 0.88 0.32 1.296 0.224 0.496 22.776 50.248-24.856 137.568a7.904 7.904 0 0 0-0.912 3.344l-3.272 5.104-99.896 32.168a79.44 79.44 0 0 0-10.52-39.752 79.272 79.272 0 0 0 2.432-65.824h-0.008c-15.776-38.472-58.36-58.016-97.648-45.832a79.344 79.344 0 0 0-97.376-30.68 79.64 79.64 0 0 0-47.832 90.16c-36.456 18.68-53.192 62.648-37.384 101.232a79.472 79.472 0 0 0 54.072 47.016 79.224 79.224 0 0 0 33.472 43.112c-3.888 6.976-13.136 26.32-8.192 44.904 2.728 10.256 9.352 18.392 19.32 24.448l-51.792 71.992-176.296 39.8a8 8 0 0 0-6.24 7.808v178.248a8.016 8.016 0 0 0 11.44 7.224l255.312-121.544c3.472 0.232 6.936 0.424 10.272 0.424 38.968 0 68.2-14.776 69.544-15.472a7.704 7.704 0 0 0 2.096-1.672 59.872 59.872 0 0 0 46.728 0.704 59.776 59.776 0 0 0 29.2 13.12c3.104 0.48 6.176 0.712 9.224 0.712 29.16 0 54.848-21.304 59.448-51.008 0.344-2.208 0.552-4.448 0.648-6.68a59.704 59.704 0 0 0 26.224-40.96 59.8 59.8 0 0 0-10.912-44.752 59.76 59.76 0 0 0-32.728-22.512 59.888 59.888 0 0 0-50.912-56.088 59.92 59.92 0 0 0-35.96 5.728l20.4-37.192 50.928-16.4c0.312 7.816 2.584 19.816 11.896 32.152 11.864 15.712 31.48 27.368 58.376 35 0.072 4.76 0.816 9.536 2.264 14.208a49.776 49.776 0 0 0 24.536 29.44 49.776 49.776 0 0 0 38.16 3.464 49.8 49.8 0 0 0 29.44-24.536 49.76 49.76 0 0 0 3.464-38.168 49.76 49.76 0 0 0-24.528-29.44 49.76 49.76 0 0 0-38.168-3.464 49.76 49.76 0 0 0-32.72 32.472c-26.408-7.88-40.456-18.792-47.728-28.208-10.496-13.6-9.192-25.976-8.864-28.128l85.696-27.6c13.632 19.496 35.104 25.144 52.2 25.144 6.576 0 12.504-0.816 17.048-1.952a7.832 7.832 0 0 0 3.224-1.76c0.68 1.728 1.344 3.456 2.152 5.152a79.52 79.52 0 0 0 56.536 44.024 79.248 79.248 0 0 0 47.8 46.832 79.4 79.4 0 0 0 60.984-3.088 79.096 79.096 0 0 0 33.096-29.232 78.96 78.96 0 0 0 43.568-7.16 79.264 79.264 0 0 0 40.944-45.296 79.232 79.232 0 0 0-3.088-60.984 80.04 80.04 0 0 0-5.104-9.128 79.184 79.184 0 0 0-1.144-65.856 79.248 79.248 0 0 0-45.296-40.936 79.16 79.16 0 0 0-54.72 0.432 79.424 79.424 0 0 0-21.168-20.216l71.776-68.288a190.888 190.888 0 0 0 56.616-107.576l1-6.248 0.136 0.008a50.144 50.144 0 0 0 44.432-26.8 49.664 49.664 0 0 0 3.472-38.16zM569.152 273.984a58.24 58.24 0 0 1-27.832 23.704c-29.992 12.28-64.376-2.096-76.672-32.088a59.392 59.392 0 0 1-2.624-8.008 8.016 8.016 0 0 0-6.264-5.896 58.624 58.624 0 0 1-43.448-35.448c-12.296-29.984 2.104-64.376 32.048-76.656a8 8 0 0 0 4.832-9.832 58.672 58.672 0 0 1 33.944-71.432 59.216 59.216 0 0 1 22.472-4.456 58.432 58.432 0 0 1 51.856 31.512c1.912 3.664 6.504 5.168 10.296 3.616a58.352 58.352 0 0 1 44.984 0.168 58.368 58.368 0 0 1 31.688 31.928h0.008a58.4 58.4 0 0 1-3.48 51.632 8 8 0 0 0 0.24 8.376c2.072 3.16 3.832 6.504 5.248 9.968a58.424 58.424 0 0 1-0.168 44.984 58.4 58.4 0 0 1-31.92 31.688 58.392 58.392 0 0 1-36.464 2.648 7.976 7.976 0 0 0-8.744 3.592z m5.776 327.392a33.808 33.808 0 0 1 20.024-16.688 33.936 33.936 0 0 1 25.968 2.36c8.056 4.224 13.984 11.336 16.696 20.024s1.872 17.912-2.36 25.968a33.832 33.832 0 0 1-20.032 16.696 33.864 33.864 0 0 1-25.96-2.36 33.792 33.792 0 0 1-16.696-20.024 33.864 33.864 0 0 1 2.36-25.976z m115.408-399.176a43.904 43.904 0 0 1 17.56-28.896 43.888 43.888 0 0 1 32.912-8 8.08 8.08 0 0 0 9.072-5.928 44.16 44.16 0 0 1 49.584-32.832 43.96 43.96 0 0 1 37.36 46.264c-0.248 4.12 2.832 7.776 6.92 8.408a44.24 44.24 0 0 1 36.912 50.416 43.952 43.952 0 0 1-22.28 31.904c-2.64 1.464-4.232 4.288-4.12 7.304 0.112 2.856-0.056 5.696-0.488 8.456-3.728 24.072-26.376 40.648-50.416 36.92a43.848 43.848 0 0 1-24.504-12.44 7.976 7.976 0 0 0-9.36-1.448 43.888 43.888 0 0 1-27.128 4.464 43.856 43.856 0 0 1-28.888-17.56 43.872 43.872 0 0 1-6.6-39.032 7.992 7.992 0 0 0-2.32-8.272 44.192 44.192 0 0 1-14.216-39.728z m40.856 149.096a79.128 79.128 0 0 0-9.16 5.992l-76.68 27.816 32.032-56.688 28.168-23.864a59.68 59.68 0 0 0 34.368 18.032 59.856 59.856 0 0 0 23.6-1.056l-32.328 29.768zM230.512 526.744a64.08 64.08 0 0 1-2.832-8.68 8.008 8.008 0 0 0-6.264-5.904 63.608 63.608 0 0 1-47.152-38.464c-13.336-32.536 2.28-69.856 34.88-83.216a8 8 0 0 0 4.76-9.784 63.664 63.664 0 0 1 36.824-77.52 64.104 64.104 0 0 1 24.384-4.84 63.408 63.408 0 0 1 56.264 34.2c1.912 3.656 6.512 5.176 10.312 3.608 32.504-13.336 69.848 2.28 83.2 34.824a63.384 63.384 0 0 1-3.776 56.024 8 8 0 0 0 0.24 8.376c2.232 3.408 4.16 7.048 5.696 10.816 13.336 32.536-2.28 69.856-34.824 83.192a63.288 63.288 0 0 1-39.56 2.872 8 8 0 0 0-8.768 3.592 63.248 63.248 0 0 1-30.192 25.72c-32.552 13.352-69.856-2.28-83.192-34.816z m23.768 84.016c-3.672-13.712 4.72-29.648 7.12-33.808 8.968 3.392 18.48 5.384 28.224 5.384 3.312 0 6.64-0.288 9.968-0.712L267.44 626.32c-7.032-3.984-11.408-9.048-13.16-15.56z m47.888 196.4l34.736-63.328a59.72 59.72 0 0 0 20.016 52.368c-9.728 3.912-30.16 10.68-54.752 10.96z m144.768-192.744a43.96 43.96 0 0 1 37.36 46.264c-0.248 4.12 2.832 7.776 6.92 8.408a43.872 43.872 0 0 1 28.888 17.56 43.864 43.864 0 0 1 8.016 32.856 43.936 43.936 0 0 1-22.272 31.904c-2.64 1.464-4.232 4.288-4.12 7.304a44.288 44.288 0 0 1-50.904 45.376 43.856 43.856 0 0 1-24.512-12.448 8 8 0 0 0-9.36-1.44 43.92 43.92 0 0 1-27.112 4.464c-11.672-1.808-21.928-8.04-28.904-17.568a43.84 43.84 0 0 1-6.6-39.008 8 8 0 0 0-2.312-8.296 44.112 44.112 0 0 1-14.224-39.696c3.728-24.08 26.336-40.624 50.664-36.872a7.968 7.968 0 0 0 8.888-5.96 44.16 44.16 0 0 1 49.584-32.848z m-21.056-61.528a8 8 0 0 0-4.56 3.768l-43.976 80.176c-27.232 1.928-50.984 22.528-55.352 50.808a59.96 59.96 0 0 0 6.672 37.928l-45.552 83.04-243.312 115.832V765.248l173.016-39.056a7.992 7.992 0 0 0 4.736-3.136L324.904 573.84c11.768-5.824 21.896-14.192 29.504-24.872a78.976 78.976 0 0 0 43.888-4.784c24.96-10.232 41.912-31.752 47.48-56.248l109.552-35.28a7.968 7.968 0 0 0 4.28-3.304L646.72 313.288l43.832-36.304c1.2 5.056 3.104 9.928 5.6 14.552l-30.208 25.584a8.24 8.24 0 0 0-1.8 2.168l-43.376 76.76a7.984 7.984 0 1 0 9.688 11.456l69.936-25.368a79.424 79.424 0 0 0-7.36 59.272 79.272 79.272 0 0 0-32.24 35.808l-72.328 23.296a7.704 7.704 0 0 0-2.432 0.744l-0.08 0.064-160.072 51.568z m226.064-27.272c-0.36 0.08-31.056 7.368-49.224-12.872l52.176-16.808a79.392 79.392 0 0 0 0.12 29.536 7.84 7.84 0 0 0-3.072 0.144z m172.936-137.408c2.112 3.552 6.768 4.8 10.504 3.04a63.384 63.384 0 0 1 48.752-2.464 63.32 63.32 0 0 1 36.208 32.728 63.416 63.416 0 0 1-0.736 56.152 7.984 7.984 0 0 0 0.696 8.344c2.44 3.32 4.552 6.848 6.28 10.488a63.392 63.392 0 0 1 2.464 48.752 63.32 63.32 0 0 1-32.728 36.208 63.304 63.304 0 0 1-39.344 5.016 7.976 7.976 0 0 0-8.56 4.064 63.232 63.232 0 0 1-28.76 27.32 63.312 63.312 0 0 1-48.752 2.464 63.32 63.32 0 0 1-36.208-32.728 63.216 63.216 0 0 1-3.312-8.52 8.016 8.016 0 0 0-6.568-5.544 63.624 63.624 0 0 1-49.168-35.848c-15.08-31.768-1.504-69.88 30.6-85.12a8 8 0 0 0 3.936-9.888 63.656 63.656 0 0 1 32.576-79.4 64.096 64.096 0 0 1 27.52-6.248 63.36 63.36 0 0 1 54.6 31.184z m-59.096-47.016l16.656-15.336c5.744 2.984 11.92 5.144 18.472 6.152 3.104 0.48 6.176 0.712 9.224 0.712 0.896 0 1.776-0.08 2.664-0.12l-14.32 13.624a79.208 79.208 0 0 0-32.696-5.032z m160.424-165.664a174.832 174.832 0 0 1-51.848 98.512l-4.44 4.224c0.104-1.08 0.272-2.136 0.312-3.224a59.744 59.744 0 0 0 26.232-40.96 59.808 59.808 0 0 0-1.128-23.704 188.28 188.28 0 0 0 18.144-41.28l1.752-5.84c1.512 1.016 3.08 1.976 4.736 2.848a50.4 50.4 0 0 0 7.264 3.032l-1.024 6.392z m47.2-37.952a34.112 34.112 0 0 1-46 14.344 34.104 34.104 0 0 1-14.336-46 34.096 34.096 0 0 1 46-14.336c8.064 4.224 13.984 11.336 16.696 20.024s1.872 17.92-2.36 25.968z" fill="#3A2C60" p-id="3426"></path></svg>