<?xml version="1.0" standalone="no"?><!DOCTYPE svg PUBLIC "-//W3C//DTD SVG 1.1//EN" "http://www.w3.org/Graphics/SVG/1.1/DTD/svg11.dtd"><svg t="1584327664296" class="icon" viewBox="0 0 1024 1024" version="1.1" xmlns="http://www.w3.org/2000/svg" p-id="3487" xmlns:xlink="http://www.w3.org/1999/xlink" width="16" height="16"><defs><style type="text/css"></style></defs><path d="M512 914.268c-223.196 0-404.127-180.925-404.127-404.116 0-223.196 180.93-404.127 404.127-404.127s404.127 180.93 404.127 404.127c0 99.108-35.733 189.824-94.946 260.126l32.17 23.133c63.84-76.841 102.24-175.555 102.24-283.254C955.592 265.165 756.988 66.56 512 66.56c-244.992 0-443.592 198.605-443.592 443.597 0 244.987 198.6 443.597 443.592 443.597a442.086 442.086 0 0 0 169.364-33.572l-19.993-34.535A402.975 402.975 0 0 1 512 914.268z m186.63 8.622l19.993 34.55a444.83 444.83 0 0 0 171.986-126.771l-32.17-23.132A404.808 404.808 0 0 1 698.63 922.89z" fill="#2c2c2c" p-id="3488"></path><path d="M503.542 677.622s-161.388 1.203-249.298-80.697l-6.953 114.417S778.53 904.033 783.34 594.53c0 0 11.284-73.472-181.044-124.047 0 0-75.873-18.468-161.377-67.451 0 0-44.047-54.185 90.322-43.351 159.37 12.846 243.277 54.195 243.277 54.195V312.71s-363.705-136.09-505.815 19.272c0 0-48.174 71.05 0 115.61 48.169 44.559 145.715 101.17 276.987 134.886-0.01 0 168.606 77.071-42.148 95.145z" fill="#2c2c2c" p-id="3489"></path></svg>