<?xml version="1.0" standalone="no"?><!DOCTYPE svg PUBLIC "-//W3C//DTD SVG 1.1//EN" "http://www.w3.org/Graphics/SVG/1.1/DTD/svg11.dtd"><svg t="1584329509019" class="icon" viewBox="0 0 1032 1024" version="1.1" xmlns="http://www.w3.org/2000/svg" p-id="1913" xmlns:xlink="http://www.w3.org/1999/xlink" width="16.125" height="16"><defs><style type="text/css"></style></defs><path d="M511.07938701 62c-248.01936065 0-449.07938701 201.06002724-449.07938701 449.07938701 0 248.02115625 201.06002724 449.07938701 449.07938701 449.07938701 248.02115625 0 449.07938701-201.05823076 449.07938701-449.07938701C960.1587749 263.06002724 759.09874766 62 511.07938701 62zM703.6607955 645.44393955c16.0770419 16.0770419 16.0770419 42.14160967 1e-8 58.21865157-16.0770419 16.0770419-42.14160967 16.0770419-58.21865156 0l-134.36455254-134.36455255-134.36455254 134.36455255c-16.0770419 16.0770419-42.14160967 16.0770419-58.21865157 0-16.0770419-16.0770419-16.0770419-42.14160967 0-58.21865157l134.36455254-134.36455254-134.36455253-134.36455253c-16.0770419-16.0770419-16.0770419-42.14160967-1e-8-58.21865157 16.0770419-16.0770419 42.14160967-16.0770419 58.21865156 0l134.36455255 134.36455254 134.36455253-134.36455254c16.0770419-16.0770419 42.14160967-16.0770419 58.21865157 0 16.0770419 16.0770419 16.0770419 42.14160967 0 58.21865157l-134.36455254 134.36455253L703.6607955 645.44393955z" p-id="1914" fill="#000000"></path></svg>