<?xml version="1.0" standalone="no"?><!DOCTYPE svg PUBLIC "-//W3C//DTD SVG 1.1//EN" "http://www.w3.org/Graphics/SVG/1.1/DTD/svg11.dtd"><svg t="1584328475451" class="icon" viewBox="0 0 1024 1024" version="1.1" xmlns="http://www.w3.org/2000/svg" p-id="7370" xmlns:xlink="http://www.w3.org/1999/xlink" width="16" height="16"><defs><style type="text/css"></style></defs><path d="M903.744 813.248l-142.976-142.976C805.44 607.488 832 530.944 832 448c0-212.096-171.904-384-384-384S64 235.904 64 448s171.904 384 384 384c82.944 0 159.488-26.56 222.272-71.232l142.976 142.976c25.024 25.024 65.536 25.024 90.496 0C928.768 878.784 928.768 838.272 903.744 813.248zM192 448c0-141.376 114.624-256 256-256s256 114.624 256 256c0 141.376-114.624 256-256 256S192 589.376 192 448z" p-id="7371" fill="#2c2c2c"></path></svg>